# xmcd
#
# Track frame offsets:
#	150
#	21527
#	61203
#	76573
#	96683
#
# Disc length: 1653 seconds
#
# Revision: 1
# Processed by: cddbd v1.4PL0 Copyright (c) Steve Scherf et al.
# Submitted via: audiograbber 1.81.03
#
DISCID=39067305
DTITLE=Fortune - One Australia
DYEAR=1900
DGENRE=Country
TTITLE0=A One Australia
TTITLE1=Touch Me
TTITLE2=Don't Even Trust A Dead Man In A "Picture"
TTITLE3=Your Crystal Chandelier
TTITLE4=Midnight Train
EXTD=
EXTT0=
EXTT1=
EXTT2=
EXTT3=
EXTT4=
PLAYORDER=
